<?xml version="1.0" encoding="UTF-8"?>
<svg id="Layer_1" xmlns="http://www.w3.org/2000/svg" version="1.1" viewBox="0 0 100.1 100.1">
  <!-- Generator: Adobe Illustrator 29.8.1, SVG Export Plug-In . SVG Version: 2.1.1 Build 2)  -->
  <defs>
    <style>
      .st0 {
        fill: #4e6cb4;
      }

      .st1 {
        fill: #fff;
      }
    </style>
  </defs>
  <rect class="st0" x="0" y="-.2" width="100.1" height="100.1" rx="25.5" ry="25.5"/>
  <g>
    <path class="st1" d="M25.1,60.5v-20h-6.8v-3.2h17.6v3.2h-6.8v20h-4Z"/>
    <path class="st1" d="M48.6,60.9c-2.3,0-4.3-.5-6-1.5s-3-2.4-3.9-4.2c-.9-1.8-1.3-3.9-1.3-6.3s.4-4.5,1.3-6.3c.9-1.8,2.2-3.2,3.9-4.2,1.7-1,3.7-1.5,6-1.5s5,.7,6.8,2c1.7,1.4,2.9,3.3,3.3,5.8h-4.4c-.3-1.3-.9-2.3-1.9-3.1-1-.8-2.2-1.1-3.9-1.1s-2.7.3-3.8,1c-1.1.7-1.9,1.6-2.4,2.9-.6,1.3-.8,2.8-.8,4.5s.3,3.2.8,4.5c.6,1.3,1.4,2.2,2.4,2.9,1.1.7,2.3,1,3.8,1s2.9-.3,3.9-1c1-.7,1.6-1.7,1.9-2.9h4.4c-.4,2.3-1.5,4.2-3.3,5.5-1.8,1.3-4,2-6.8,2Z"/>
    <path class="st1" d="M69.3,60.5l-8.5-23.2h4.3l6.7,19.2,6.8-19.2h4.2l-8.6,23.2h-4.8Z"/>
  </g>
</svg>